Coordinates
version=1
nRows=16
nColumns=22
inDegrees=yes

Units are S.I. units (second, meters, Newtons, ...)
If the header above contains a line with 'inDegrees', this indicates whether rotational values are in degrees (yes) or radians (no).

endheader
time	pelvis_tilt	pelvis_list	pelvis_rotation	pelvis_tx	pelvis_ty	pelvis_tz	hip_flexion_r	hip_adduction_r	hip_rotation_r	knee_angle_r	ankle_angle_r	subtalar_angle_r	hip_flexion_l	hip_adduction_l	hip_rotation_l	knee_angle_l	ankle_angle_l	subtalar_angle_l	lumbar_extension	lumbar_bending	lumbar_rotation
      2.97000000	     -2.54199585	     -4.15752551	    -20.70609909	     -0.60887377	      0.88079423	      0.10526586	     13.10874924	      4.00495693	      1.94906635	    -22.66317224	     13.59188565	     -0.87589721	     24.52716077	    -12.42449192	     -8.50128253	    -68.60298123	      9.08447794	     -1.46534870	     -5.46695039	      2.81882514	     18.98044669
      2.98000000	     -2.38238913	     -4.17140450	    -20.89189069	     -0.60128779	      0.88220463	      0.10827096	     11.93544594	      3.97788249	      2.13469473	    -21.88585950	     13.75763710	     -0.86787914	     25.20269338	    -12.90229017	     -9.80226904	    -66.90457061	      9.65636279	     -2.11540468	     -5.56149229	      2.59681404	     19.87445017
      2.99000000	     -2.24585609	     -4.22225272	    -21.01600419	     -0.59360874	      0.88342116	      0.11102027	     10.75808858	      3.95801899	      2.24972136	    -21.08664055	     13.92212743	     -0.83209731	     25.79732577	    -13.36993399	    -11.03728049	    -64.97254941	     10.13335930	     -2.70911041	     -5.63107764	      2.44047634	     20.67788197
      3.00000000	     -2.16822662	     -4.31925905	    -21.11619800	     -0.58592680	      0.88436284	      0.11357277	      9.63404370	      3.98413091	      2.32119396	    -20.29851149	     14.06642658	     -0.77487366	     26.35629402	    -13.86321626	    -12.21150231	    -62.84786595	     10.51973475	     -3.13661577	     -5.65046261	      2.36996782	     21.43088092
      3.01000000	     -2.06375931	     -4.41134379	    -21.09807516	     -0.57811763	      0.88515295	      0.11570207	      8.45925198	      3.94494229	      2.25987143	    -19.46557803	     14.26672097	     -0.67194015	     26.81939397	    -14.21054165	    -13.22116040	    -60.50815735	     10.78322633	     -3.79713358	     -5.68925255	      2.31557838	     22.02295202
      3.02000000	     -2.00507391	     -4.54489960	    -21.05592309	     -0.57031833	      0.88566477	      0.11763300	      7.33230517	      3.95282854	      2.16884145	    -18.65661046	     14.46939881	     -0.58074022	     27.25315332	    -14.55564195	    -14.11544838	    -58.02570218	     10.92136309	     -4.14602309	     -5.69417011	      2.33452239	     22.58546847
      3.03000000	     -1.97695269	     -4.68818460	    -20.97004754	     -0.56249562	      0.88592608	      0.11930809	      6.24594823	      3.96423816	      2.02209927	    -17.86493331	     14.64682759	     -0.47029919	     27.65613997	    -14.84535074	    -14.88886572	    -55.41064365	     10.94306610	     -4.46209403	     -5.66802660	      2.39449882	     23.06005434
      3.04000000	     -1.98278008	     -4.82912739	    -20.81722111	     -0.55464671	      0.88591065	      0.12069197	      5.21593009	      3.96960408	      1.79842652	    -17.11123743	     14.89776964	     -0.34349129	     28.05811509	    -15.04614579	    -15.47863569	    -52.69520907	     10.84768257	     -4.71124764	     -5.60296411	      2.48195892	     23.44980599
      3.05000000	     -2.00879687	     -4.97933058	    -20.64110791	     -0.54680056	      0.88566755	      0.12189612	      4.22772996	      3.98758373	      1.54619765	    -16.39827190	     15.17747490	     -0.19534558	     28.42816938	    -15.21044982	    -15.96095269	    -49.90844220	     10.66457105	     -4.86142844	     -5.51982287	      2.59279670	     23.79502578
      3.06000000	     -2.07435146	     -5.12685102	    -20.43794250	     -0.53896140	      0.88519006	      0.12288993	      3.30991871	      4.01328742	      1.27128784	    -15.73242588	     15.43769332	     -0.06160221	     28.80307623	    -15.32994122	    -16.32259212	    -47.08269227	     10.38342461	     -4.88240614	     -5.39467320	      2.72509959	     24.11211284
      3.07000000	     -2.16104581	     -5.27228825	    -20.22298896	     -0.53110438	      0.88450830	      0.12374141	      2.43877700	      4.04384744	      0.99130154	    -15.11172899	     15.74635814	      0.08480410	     29.15866721	    -15.43597934	    -16.65057853	    -44.25606240	     10.07564061	     -4.80840190	     -5.24330773	      2.86857584	     24.38554068
      3.08000000	     -2.28177211	     -5.41093562	    -20.00309368	     -0.52326152	      0.88362733	      0.12447478	      1.64112840	      4.08175418	      0.71265629	    -14.55384514	     16.05931206	      0.22583769	     29.52236693	    -15.53458112	    -16.94864844	    -41.46725046	      9.74713105	     -4.67335475	     -5.05277732	      3.01243377	     24.63990457
      3.09000000	     -2.40685740	     -5.54766077	    -19.78815266	     -0.51539402	      0.88260097	      0.12511709	      0.87259734	      4.11955353	      0.45110442	    -14.04157454	     16.43352982	      0.40337814	     29.86145055	    -15.64360543	    -17.29168058	    -38.75600904	      9.46881724	     -4.46726508	     -4.85298698	      3.15300022	     24.87999728
      3.10000000	     -2.56708851	     -5.67102476	    -19.57243118	     -0.50755956	      0.88141323	      0.12565419	      0.19827829	      4.15769547	      0.17259263	    -13.61958106	     16.77711891	      0.54672273	     30.23048401	    -15.75209878	    -17.65742702	    -36.14931288	      9.20753298	     -4.28439862	     -4.61063476	      3.28582922	     25.11574810
      3.11000000	     -2.73542374	     -5.78454556	    -19.36088157	     -0.49970668	      0.88011757	      0.12613537	     -0.43181010	      4.19020880	     -0.10162753	    -13.25852816	     17.13614704	      0.68799532	     30.59854767	    -15.87055616	    -18.09614300	    -33.68093166	      9.01514737	     -4.10899914	     -4.34885621	      3.39752218	     25.34370759
      3.12000000	     -2.89974733	     -5.89564039	    -19.15165909	     -0.49184817	      0.87874526	      0.12654182	     -1.03071205	      4.21966083	     -0.36441791	    -12.95957847	     17.52071552	      0.84345449	     30.95914645	    -16.00108204	    -18.61579802	    -31.37817460	      8.92195050	     -3.93832643	     -4.08849819	      3.49610533	     25.55775160
